<svg width="30" height="30" viewBox="0 0 30 30" fill="none" xmlns="http://www.w3.org/2000/svg">
<path d="M10 30C11.1046 30 12 29.1046 12 28V21.4118C12 20.3072 12.8954 19.4118 14 19.4118H16C17.1046 19.4118 18 20.3072 18 21.4118V28C18 29.1046 18.8954 30 20 30H23.5C24.6046 30 25.5 29.1046 25.5 28V17.2378C25.5 16.4892 26.1069 15.8824 26.8554 15.8824C28.0444 15.8824 28.6573 14.4606 27.8409 13.5962L16.454 1.53956C15.6648 0.703889 14.3352 0.703887 13.546 1.53956L2.15913 13.5962C1.34273 14.4606 1.95556 15.8824 3.14455 15.8824C3.89315 15.8824 4.5 16.4892 4.5 17.2378V28C4.5 29.1046 5.39543 30 6.5 30H10Z" fill="#3488BC"/>
</svg>
