<svg width="66" height="66" viewBox="0 0 66 66" fill="none" xmlns="http://www.w3.org/2000/svg">
<path d="M30.2316 18.3846C30.2316 16.9062 29.0572 15.7077 27.6085 15.7077C26.1597 15.7077 24.9853 16.9062 24.9853 18.3846V25.4153C24.9853 25.9676 24.5376 26.4153 23.9853 26.4153H17.1156C15.6669 26.4153 14.4925 27.6138 14.4925 29.0923C14.4925 30.5707 15.6669 31.7692 17.1156 31.7692H23.9853C24.5376 31.7692 24.9853 32.2169 24.9853 32.7692V39.7999C24.9853 41.2784 26.1597 42.4768 27.6085 42.4768C29.0572 42.4768 30.2316 41.2784 30.2316 39.7999V32.7692C30.2316 32.2169 30.6793 31.7692 31.2316 31.7692H38.1009C39.5497 31.7692 40.7241 30.5707 40.7241 29.0923C40.7241 27.6138 39.5497 26.4153 38.1009 26.4153H31.2316C30.6793 26.4153 30.2316 25.9676 30.2316 25.4153V18.3846Z" fill="#4D4D4D"/>
<path fill-rule="evenodd" clip-rule="evenodd" d="M27.6085 5C14.5699 5 4 15.7865 4 29.0923C4 42.398 14.5699 53.1845 27.6085 53.1845C33.0904 53.1845 38.136 51.2778 42.1431 48.0787C42.5338 47.7668 43.094 47.7689 43.4684 48.1004L57.2166 60.2733C58.3109 61.2422 60.085 61.2422 61.1793 60.2733C62.2736 59.3045 62.2736 57.7336 61.1793 56.7647L47.0885 44.2884C46.6992 43.9437 46.6409 43.3594 46.9359 42.9312C49.6333 39.0153 51.2169 34.2425 51.2169 29.0923C51.2169 15.7865 40.647 5 27.6085 5ZM9.24632 29.0923C9.24632 18.7433 17.4673 10.3538 27.6085 10.3538C37.7496 10.3538 45.9706 18.7433 45.9706 29.0923C45.9706 39.4412 37.7496 47.8307 27.6085 47.8307C17.4673 47.8307 9.24632 39.4412 9.24632 29.0923Z" fill="#4D4D4D"/>
</svg>
