<svg width="66" height="66" viewBox="0 0 66 66" fill="none" xmlns="http://www.w3.org/2000/svg">
<path d="M8 17.9606C8 19.0652 8.89543 19.9606 10 19.9606H15.5343H18.0054C19.1099 19.9606 20.0054 19.0652 20.0054 17.9606V15.5062V10C20.0054 8.89543 19.1099 8 18.0054 8H17.5343C16.4297 8 15.5343 8.89543 15.5343 10V13.5062C15.5343 14.6108 14.6389 15.5062 13.5343 15.5062H10C8.89543 15.5062 8 16.4016 8 17.5062V17.9606Z" fill="#4D4D4D"/>
<path d="M8 48.0393C8 46.9347 8.89543 46.0393 10 46.0393H15.5343H18.0054C19.1099 46.0393 20.0054 46.9347 20.0054 48.0393V50.4937V55.9999C20.0054 57.1045 19.1099 57.9999 18.0054 57.9999H17.5343C16.4297 57.9999 15.5343 57.1045 15.5343 55.9999V52.4937C15.5343 51.3891 14.6389 50.4937 13.5343 50.4937H10C8.89543 50.4937 8 49.5983 8 48.4937V48.0393Z" fill="#4D4D4D"/>
<path d="M57.998 17.9606C57.998 19.0652 57.1026 19.9606 55.998 19.9606H50.4637H47.9927C46.8881 19.9606 45.9927 19.0652 45.9927 17.9606V15.5062V10C45.9927 8.89543 46.8881 8 47.9927 8H48.4637C49.5683 8 50.4637 8.89543 50.4637 10V13.5062C50.4637 14.6108 51.3592 15.5062 52.4637 15.5062H55.998C57.1026 15.5062 57.998 16.4016 57.998 17.5062V17.9606Z" fill="#4D4D4D"/>
<path d="M58 48.0396C58 46.935 57.1046 46.0396 56 46.0396H50.4657H47.9946C46.8901 46.0396 45.9946 46.935 45.9946 48.0396V50.4939V56.0001C45.9946 57.1047 46.8901 58.0001 47.9946 58.0001H48.4657C49.5703 58.0001 50.4657 57.1047 50.4657 56.0001V52.4939C50.4657 51.3894 51.3611 50.4939 52.4657 50.4939H56C57.1046 50.4939 58 49.5985 58 48.4939V48.0396Z" fill="#4D4D4D"/>
</svg>
