<svg width="66" height="66" viewBox="0 0 66 66" fill="none" xmlns="http://www.w3.org/2000/svg">
<path d="M20.0054 10C20.0054 8.89543 19.11 8 18.0054 8H12.4711H10C8.89543 8 8 8.89543 8 10V12.4544V17.9606C8 19.0652 8.89543 19.9606 10 19.9606H10.4711C11.5756 19.9606 12.4711 19.0652 12.4711 17.9606V14.4544C12.4711 13.3498 13.3665 12.4544 14.4711 12.4544H18.0054C19.11 12.4544 20.0054 11.559 20.0054 10.4544V10Z" fill="#4D4D4D"/>
<path d="M20.0054 55.9999C20.0054 57.1045 19.11 57.9999 18.0054 57.9999H12.4711H10C8.89543 57.9999 8 57.1045 8 55.9999V53.5455V48.0393C8 46.9347 8.89543 46.0393 10 46.0393H10.4711C11.5756 46.0393 12.4711 46.9347 12.4711 48.0393V51.5455C12.4711 52.6501 13.3665 53.5455 14.4711 53.5455H18.0054C19.11 53.5455 20.0054 54.441 20.0054 55.5455V55.9999Z" fill="#4D4D4D"/>
<path d="M45.9924 10C45.9924 8.89543 46.8879 8 47.9924 8H53.5268H55.9979C57.1024 8 57.9979 8.89543 57.9979 10V12.4544V17.9606C57.9979 19.0652 57.1024 19.9606 55.9979 19.9606H55.5268C54.4222 19.9606 53.5268 19.0652 53.5268 17.9606V14.4544C53.5268 13.3498 52.6314 12.4544 51.5268 12.4544H47.9924C46.8879 12.4544 45.9924 11.559 45.9924 10.4544V10Z" fill="#4D4D4D"/>
<path d="M45.9944 56.0002C45.9944 57.1047 46.8898 58.0002 47.9944 58.0002H53.5287H55.9998C57.1044 58.0002 57.9998 57.1047 57.9998 56.0002V53.5458V48.0396C57.9998 46.935 57.1044 46.0396 55.9998 46.0396H55.5287C54.4242 46.0396 53.5287 46.935 53.5287 48.0396V51.5458C53.5287 52.6503 52.6333 53.5458 51.5287 53.5458H47.9944C46.8898 53.5458 45.9944 54.4412 45.9944 55.5458V56.0002Z" fill="#4D4D4D"/>
</svg>
