<svg width="66" height="66" viewBox="0 0 66 66" fill="none" xmlns="http://www.w3.org/2000/svg">
<path d="M14.4925 29.0923C14.4925 27.6138 15.6669 26.4153 17.1156 26.4153H38.1009C39.5496 26.4153 40.7241 27.6138 40.7241 29.0923C40.7241 30.5707 39.5496 31.7692 38.1009 31.7692H17.1156C15.6669 31.7692 14.4925 30.5707 14.4925 29.0923Z" fill="#4D4D4D"/>
<path fill-rule="evenodd" clip-rule="evenodd" d="M4 29.0923C4 15.7865 14.5699 5 27.6085 5C40.647 5 51.2169 15.7865 51.2169 29.0923C51.2169 33.9108 49.8308 38.3989 47.4432 42.164C46.8863 43.0422 46.9986 44.2088 47.7772 44.8982L61.1793 56.7647C62.2736 57.7336 62.2736 59.3045 61.1793 60.2733C60.085 61.2422 58.3109 61.2422 57.2166 60.2733L44.1218 48.6789C43.3731 48.016 42.2551 48.0158 41.4512 48.6106C37.5621 51.488 32.7794 53.1845 27.6085 53.1845C14.5699 53.1845 4 42.398 4 29.0923ZM27.6085 10.3538C17.4673 10.3538 9.24632 18.7433 9.24632 29.0923C9.24632 39.4412 17.4673 47.8307 27.6085 47.8307C37.7496 47.8307 45.9706 39.4412 45.9706 29.0923C45.9706 18.7433 37.7496 10.3538 27.6085 10.3538Z" fill="#4D4D4D"/>
</svg>
