<svg width="19" height="19" viewBox="0 0 19 19" fill="none" xmlns="http://www.w3.org/2000/svg">
<path fill-rule="evenodd" clip-rule="evenodd" d="M0.457731 0.457552C1.06793 -0.152642 2.05725 -0.152642 2.66744 0.457552L8.58946 6.37957C8.97998 6.7701 9.61315 6.7701 10.0037 6.37957L15.9257 0.457552C16.5359 -0.152643 17.5252 -0.152642 18.1354 0.457552C18.7456 1.06775 18.7456 2.05707 18.1354 2.66726L12.2134 8.58928C11.8229 8.9798 11.8229 9.61297 12.2134 10.0035L18.1354 15.9255C18.7456 16.5357 18.7456 17.525 18.1354 18.1352C17.5252 18.7454 16.5359 18.7454 15.9257 18.1352L10.0037 12.2132C9.61315 11.8227 8.97998 11.8227 8.58946 12.2132L2.66744 18.1352C2.05725 18.7454 1.06793 18.7454 0.457731 18.1352C-0.152463 17.525 -0.152463 16.5357 0.457731 15.9255L6.37975 10.0035C6.77027 9.61297 6.77027 8.9798 6.37975 8.58928L0.457731 2.66726C-0.152463 2.05707 -0.152463 1.06775 0.457731 0.457552Z" fill="#A8A8A8"/>
</svg>
